<svg width="184" height="33" viewBox="0 0 184 33" fill="none" xmlns="http://www.w3.org/2000/svg">
<g clip-path="url(#clip0_1647_30118)">
<path d="M63.8945 5.96045H68.8277V20.5004C68.8277 25.3017 71.6977 28.1821 75.4661 28.1821C79.2748 28.1821 82.1025 25.3017 82.1025 20.5004V5.96045H87.0366V21.5447C87.0366 27.5961 82.4984 32.767 75.4661 32.767C68.4327 32.767 63.8945 27.5961 63.8945 21.5447V5.96045Z" fill="#005CA9"/>
<path d="M114.424 32.2021V5.95923H109.544V22.3333L95.2209 5.95923H92.5557V32.1573H97.4357V15.8529L111.727 32.2021H114.424Z" fill="#005CA9"/>
<path d="M125.329 5.96045H120.264V32.1585H125.329V5.96045Z" fill="#005CA9"/>
<path fill-rule="evenodd" clip-rule="evenodd" d="M157.82 19.0577C157.82 11.357 151.516 5.11646 143.738 5.11646C135.962 5.11646 129.657 11.357 129.657 19.0577C129.657 26.7555 135.962 32.9999 143.738 32.9999C146.697 32.9999 149.441 32.0931 151.707 30.5496L154.005 32.8459L157.215 29.636L155.003 27.4225C156.77 25.092 157.82 22.196 157.82 19.0577ZM143.738 28.6218C138.689 28.6218 134.594 24.3393 134.594 19.0577C134.594 13.7728 138.689 9.49122 143.738 9.49122C148.788 9.49122 152.882 13.7728 152.882 19.0577C152.882 20.8622 152.403 22.551 151.573 23.9921L148.544 20.9645L145.333 24.1735L148.428 27.2693C147.055 28.1284 145.453 28.6218 143.738 28.6218Z" fill="#005CA9"/>
<path d="M178.595 32.1573H184L172.837 5.95923H169.439L157.984 32.1573H163.243L165.304 27.2234H176.599L178.595 32.1573ZM167.103 22.9154L171.039 13.4927L174.854 22.9154H167.103Z" fill="#005CA9"/>
<path d="M17.926 31.7779H0L2.05528 28.1175H12.5848C13.0465 28.5447 13.5278 28.9502 14.0252 29.3335C15.2052 30.2413 16.5145 31.0915 17.926 31.7779Z" fill="#005CA9"/>
<path d="M21.873 5.20605C21.2937 5.69212 17.5913 12.8911 22.146 19.2248C23.4305 21.0112 25.3068 23.1885 27.5064 24.4639C29.7938 25.792 31.323 26.1284 32.304 26.3946C34.0317 26.8646 36.7081 27.0586 40.1551 27.2448C42.9466 27.397 48.6629 27.4291 49.6606 27.4262L50.7256 27.4311L53.1724 32.093C53.1724 32.093 44.8674 32.13 41.0069 31.9213C36.6652 31.6873 33.292 31.4416 31.1161 30.8507C29.881 30.5153 27.9555 30.0901 25.0727 28.4188C22.3026 26.8119 19.4627 23.9997 17.9877 21.6527C14.434 15.9924 15.3258 12.193 15.7929 10.3277C16.8071 8.92252 18.1165 7.57356 19.53 6.57118C20.5535 5.834 21.1932 5.54484 21.873 5.20605Z" fill="#005CA9"/>
<path d="M27.6238 31.486C26.5686 31.6879 25.5407 31.7806 24.5801 31.7786C21.0683 31.7727 17.7618 30.1268 15.0311 28.0265C11.7554 25.5049 9.36071 21.9985 8.75364 18.1815C8.66536 17.7369 8.62542 17.2864 8.56051 16.656C8.31724 14.0418 8.69273 10.7534 10.5266 7.60965C12.1137 4.89118 14.4782 2.53535 18.3738 0.905527C19.9994 0.225858 23.4898 -0.53958 27.5311 0.534989C31.7773 1.70511 35.4885 4.33882 37.8748 7.79737C37.8748 7.79737 34.2134 3.03899 27.9485 2.49292C27.6652 2.46905 27.3824 2.45348 27.0976 2.44958C24.0028 2.38768 21.0429 3.45286 18.5771 5.22467C16.9991 6.34358 15.6153 7.75354 14.5435 9.37557C14.4846 9.46524 14.2954 9.74411 14.0447 10.1887L13.9696 10.3218C13.917 10.417 13.8623 10.5188 13.8068 10.6271C13.0471 12.0819 11.985 14.6858 11.9427 17.9753C11.8889 22.2111 13.7882 25.2651 14.5002 26.2947C14.5182 26.3221 16.2858 27.5155 18.9604 28.0255C20.0448 28.2313 21.0659 28.2673 21.9373 28.2429C22.6711 28.8338 23.4449 29.3759 24.2466 29.842C25.5455 30.5958 26.6651 31.1116 27.6238 31.486Z" fill="#005CA9"/>
<path d="M34.4536 6.67358C36.7633 8.0455 40.0894 12.3476 40.2419 16.2581C40.4873 19.9913 38.6134 23.6361 37.3631 25.4186C35.3376 25.2724 33.8021 25.0919 32.7366 24.8024C32.4056 24.7126 32.0076 24.6152 31.5342 24.4679C32.8615 23.2461 34.8349 20.9449 35.8359 17.4107C37.2178 12.4783 35.854 9.12646 34.4536 6.67358Z" fill="#005CA9"/>
</g>
<defs>
<clipPath id="clip0_1647_30118">
<rect width="184" height="32.9999" fill="white"/>
</clipPath>
</defs>
</svg>